# xmcd CD database file generated by OrangeCD 6.3
#
# Track frame offsets:
#	150
#	16799
#	34122
#	51210
#	69135
#	83750
#	99274
#	116748
#	133097
#	146373
#	165648
#	181917
#	198567
#	215730
#	232177
#	249800
#	265475
#	280923
#	295310
#	311629
#
# Disc length: 4357 seconds
#
# Revision: 2
# Processed by: cddbd v1.5.2PL0 Copyright (c) Steve Scherf et al.
# Submitted via: OrangeCD 6.3
#
DISCID=22110314
DTITLE=Dave Sheriff - Best of Dave Sheriff Vol.1
DYEAR=2001
DGENRE=Country
TTITLE0=Best Of Friends
TTITLE1=Playa Silencio
TTITLE2=Me and My Baby
TTITLE3=Let's Give Thanks
TTITLE4=Waltz Of A Lifetime
TTITLE5=He Likes To Get Drunk
TTITLE6=Strut Your Stuff
TTITLE7=The Sun Don't Shine On Me
TTITLE8=Cajun Jamboree
TTITLE9=Our Song - Thank You For Being My Wife
TTITLE10=The Game Of Life
TTITLE11=Mum Second To None
TTITLE12=Wish You Were Here
TTITLE13=A1 Blues
TTITLE14=You, The Moon And The Mills and Boon
TTITLE15=Back Seat Boogie
TTITLE16=Dreaming
TTITLE17=Western Express
TTITLE18=The Alamo
TTITLE19=Walking The Line
EXTD=
EXTT0=
EXTT1=
EXTT2=
EXTT3=
EXTT4=
EXTT5=
EXTT6=
EXTT7=
EXTT8=
EXTT9=
EXTT10=
EXTT11=
EXTT12=
EXTT13=
EXTT14=
EXTT15=
EXTT16=
EXTT17=
EXTT18=
EXTT19=
PLAYORDER=
